/* XPM */
static char *result[] = {
/* columns rows colors chars-per-pixel */
"64 64 3 1 ",
"  c black",
". c #FFE500",
"X c None",
/* pixels */
"XXXXXXXXXXXXXXXXXXXXXXXXXXXXXXXXXXXXXXXXXXXXXXXXXXXXXXXXXXXXXXXX",
"XXXXXXXXXXXXXXXXXXXXXXXXXXXXXXXXXXXXXXXXXXXXXXXXXXXXXXXXXXXXXXXX",
"XXXXXXXXXXXXXXXXXXXXXXXXXXXXXXXXXXXXXXXXXXXXXXXXXXXXXXXXXXXXXXXX",
"XXXXXXXXXXXXXXXXXXXXXXXXXXXXXXXXXXXXXXXXXXXXXXXXXXXXXXXXXXXXXXXX",
"XXXXXXXXXXXXXXXXXXXXXXXXXXXXXXXXXXXXXXXXXXXXXXXXXXXXXXXXXXXXXXXX",
"XXXXXXXXXXXXXXXXXXXXXXXXXXXXXXXXXXXXXXXXXXXXXXXXXXXXXXXXXXXXXXXX",
"XXXXXXXXXXXXXXXXXXXXXXXX......XXXXXXXXXXXXXXXXXXXXXXXXXXXXXXXXXX",
"XXXXXXXXXXXXXXXXXXXXXX............XXXXXXXXXXXXXXXXXXXXXXXXXXXXXX",
"XXXXXXXXXXXXXXXXXXXX................XXXXXXXXXXXXXXXXXXXXXXXXXXXX",
"XXXXXXXXXXXXXXXXXX....................XXXXXXXXXXXXXXXXXXXXXXXXXX",
"XXXXXXXXXXXXXXXXX.......................XXXXXXXXXXXXXXXXXXXXXXXX",
"XXXXXXXXXXXXXXXXX.......    .............XXXXXXXXXXXXXXXXXXXXXXX",
"XXXXXXXXXXXXXXXX......   ...   ...........XXXXXXXXXXXXXXXXXXXXXX",
"XXXXXXXXXXXXXXX......  .......   ..........XXXXXXXXXXXXXXXXXXXXX",
"XXXXXXXXXXXXXXX.....  ........... ..........XXXXXXXXXXXXXXXXXXXX",
"XXXXXXXXXXXXXX.....  .............  .........XXXXXXXXXXXXXXXXXXX",
"XXXXXXXXXXXXX...... ...............  .........XXXXXXXXXXXXXXXXXX",
"XXXXXXXXXXXXX...... ................. ........XXXXXXXXXXXXXXXXXX",
"XXXXXXXXXXXXX.....  .................  ........XXXXXXXXXXXXXXXXX",
"XXXXXXXXXXXXX..... ...................  .......XXXXXXXXXXXXXXXXX",
"XXXXXXXXXXXXX..... .................... ........XXXXXXXXXXXXXXXX",
"XXXXXXXXXXXXX..... ..................... .......XXXXXXXXXXXXXXXX",
"XXXXXXXXXXXXX..... ........   ..........  .......XXXXXXXXXXXXXXX",
"XXXXXXXXXXXXX..... .......  ..  ......... .......XXXXXXXXXXXXXXX",
"XXXXXXXXXXXXX.....  ...... ....  ........  ......XXXXXXXXXXXXXXX",
"XXXXXXXXXXXXX...... ...... .....  ........ ......XXXXXXXXXXXXXXX",
"XXXXXXXXXXXXX...... ....... .....  .......  .....XXXXXXXXXXXXXXX",
"XXXXXXXXXXXXX....... ...... ...... ........ .....XXXXXXXXXXXXXXX",
"XXXXXXXXXXXXX.......  ...... ...... ....... ......XXXXXXXXXXXXXX",
"XXXXXXXXXXXXX........ ...... ....... ...... ......XXXXXXXXXXXXXX",
"XXXXXXXXXXXXX......... ..... ....... ...... ......XXXXXXXXXXXXXX",
"XXXXXXXXXXXXXX........ .....  ....... ...... .....XXXXXXXXXXXXXX",
"XXXXXXXXXXXXXXX........ ..... ....... ...... .....XXXXXXXXXXXXXX",
"XXXXXXXXXXXXXXXX....... ..... ....... ...... .....XXXXXXXXXXXXXX",
"XXXXXXXXXXXXXXXXX....... .... ........ ..... .....XXXXXXXXXXXXXX",
"XXXXXXXXXXXXXXXXXX...... .... ........ ..... .....XXXXXXXXXXXXXX",
"XXXXXXXXXXXXXXXXXXX..... .... ........ ..... ....XXXXXXXXXXXXXXX",
"XXXXXXXXXXXXXXXXXXX..... ....  ....... ..... ....XXXXXXXXXXXXXXX",
"XXXXXXXXXXXXXXXXXXX..... ..... ....... ..... ....XXXXXXXXXXXXXXX",
"XXXXXXXXXXXXXXXXXXX..... .....  ..... ...... ....XXXXXXXXXXXXXXX",
"XXXXXXXXXXXXXXXXXXX..... ......    .  ...... ....XXXXXXXXXXXXXXX",
"XXXXXXXXXXXXXXXXXXX..... .......... ....... ....XXXXXXXXXXXXXXXX",
"XXXXXXXXXXXXXXXXXXX.... ................... ....XXXXXXXXXXXXXXXX",
"XXXXXXXXXXXXXXXXXXX.... .................. ....XXXXXXXXXXXXXXXXX",
"XXXXXXXXXXXXXXXXXXX.... ................. .....XXXXXXXXXXXXXXXXX",
"XXXXXXXXXXXXXXXXXXX.... ................  .....XXXXXXXXXXXXXXXXX",
"XXXXXXXXXXXXXXXXXXX.... ................ .....XXXXXXXXXXXXXXXXXX",
"XXXXXXXXXXXXXXXXXXX.... ............... ......XXXXXXXXXXXXXXXXXX",
"XXXXXXXXXXXXXXXXXXX....  ............. ......XXXXXXXXXXXXXXXXXXX",
"XXXXXXXXXXXXXXXXXXX.....  ...........  .....XXXXXXXXXXXXXXXXXXXX",
"XXXXXXXXXXXXXXXXXXXX......     ...   .......XXXXXXXXXXXXXXXXXXXX",
"XXXXXXXXXXXXXXXXXXXX...........    ........XXXXXXXXXXXXXXXXXXXXX",
"XXXXXXXXXXXXXXXXXXXXX......................XXXXXXXXXXXXXXXXXXXXX",
"XXXXXXXXXXXXXXXXXXXXXX....................XXXXXXXXXXXXXXXXXXXXXX",
"XXXXXXXXXXXXXXXXXXXXXX..................XXXXXXXXXXXXXXXXXXXXXXXX",
"XXXXXXXXXXXXXXXXXXXXXXX................XXXXXXXXXXXXXXXXXXXXXXXXX",
"XXXXXXXXXXXXXXXXXXXXXXXXXX...........XXXXXXXXXXXXXXXXXXXXXXXXXXX",
"XXXXXXXXXXXXXXXXXXXXXXXXXXXXXXXXXXXXXXXXXXXXXXXXXXXXXXXXXXXXXXXX",
"XXXXXXXXXXXXXXXXXXXXXXXXXXXXXXXXXXXXXXXXXXXXXXXXXXXXXXXXXXXXXXXX",
"XXXXXXXXXXXXXXXXXXXXXXXXXXXXXXXXXXXXXXXXXXXXXXXXXXXXXXXXXXXXXXXX",
"XXXXXXXXXXXXXXXXXXXXXXXXXXXXXXXXXXXXXXXXXXXXXXXXXXXXXXXXXXXXXXXX",
"XXXXXXXXXXXXXXXXXXXXXXXXXXXXXXXXXXXXXXXXXXXXXXXXXXXXXXXXXXXXXXXX",
"XXXXXXXXXXXXXXXXXXXXXXXXXXXXXXXXXXXXXXXXXXXXXXXXXXXXXXXXXXXXXXXX",
"XXXXXXXXXXXXXXXXXXXXXXXXXXXXXXXXXXXXXXXXXXXXXXXXXXXXXXXXXXXXXXXX"
};
