/* XPM */
static char *result[] = {
/* columns rows colors chars-per-pixel */
"64 64 21 1 ",
"  c #795547",
". c #795548",
"X c #D50000",
"o c #DD2E34",
"O c #906861",
"+ c #986E6A",
"@ c #4CAF50",
"# c #FFEB3B",
"$ c #DD9E4B",
"% c #E5A44C",
"& c #FFB74D",
"* c #FFAC5E",
"= c #448AFF",
"- c #FF8D93",
"; c #FF80AB",
": c #FD8BB1",
"> c #FFF496",
", c #F9C4B4",
"< c #D6B1D8",
"1 c #F9ACC6",
"2 c #F8BBD0",
/* pixels */
">>>>>>>>>>>>>>>>>>>>>>>>>>>>>>>>>>>>>>>>>>>>>>>>>>>>>>>>>>>>>>>>",
">>>>>>>>>>>>>>>>>>>>>>>>>>>>>>>>>>>>>>>>>>>>>>>>>>>>>>>>>>>>>>>>",
">>>>>>>>>>>>>>>>>>>>>>>>>>>>>>>>>>>>>>>>>>>>>>>>>>>>>>>>>>>>>>>>",
">>>>>>>>>>>>>>>>>>>>>>>>>>>>>>>>>>>>>>>>>>>>>>>>>>>>>>>>>>>>>>>>",
">>>>>>>>>>>>>>>>>>>>>>>>>>>>>>>>>>>>>>>>>>>>>>>>>>>>>>>>>>>>>>>>",
">>>>>>>>>>>>>>>>>>>>>>>>>>>>>>>>>>>>>>>>>>>>>>>>>>>>>>>>>>>>>>>>",
">>>>>>>>>>>>>>>>>>>>>>>>>>>>>>>>>>>>>>>>>>>>>>>>>>>>>>>>>>>>>>>>",
">>>>>>>>>>>>>>>>>>>>>>>>>>>>>>>............>>>>>>>>>>>>>>>>>>>>>",
">>>>>>>>>>>>>>>>>>>>>>>>>>>>>>>............>>>>>>>>>>>>>>>>>>>>>",
">>>>>>>>>>>>>>>>>>>>>>>>.......222222222222.......>>>>>>>>>>>>>>",
">>>>>>>>>>>>>>>>>>>>>>>>.......222222222222.......>>>>>>>>>>>>>>",
">>>>>>>>>>>>>>>>>>......22222222222222222222222222...>>>>>>>>>>>",
">>>>>>>>>>>>>>>>>>......22222222222222222222222222...>>>>>>>>>>>",
">>>>>>>>>>>>>>>>>>......22222222222222222222222222...>>>>>>>>>>>",
">>>>>>>>>>>>>>>>>.2222222222222222222=222222222222;;;..>>>>>>>>>",
">>>>>>>>>>>>>>>>>.2222222222222222222=222222222222;;;..>>>>>>>>>",
">>>>>>>>>>>>>>...22222222222222222222=222222222222;;;&&..>>>>>>>",
">>>>>>>>>>>>>>...22222222222222222222=222222222222;;;&&..>>>>>>>",
">>>>>>>>>>>>>>...22222222222222222222=222222222222;;;&&..>>>>>>>",
">>>>>>>>>>>...22222222222222222222222222@@@@@@2222;;;&&..>>>>>>>",
">>>>>>>>>>>...22222222222222222222222222@@@@@@2222;;;&&..>>>>>>>",
">>>>>>>>>>>...22222222222222222222222222@@@@@@2222;;;&&..>>>>>>>",
">>>>>>>>>..2222222222222XXXoo2222;;;;2222222222222;;;&&&&..>>>>>",
">>>>>>>>>..222222222222222211;;;;&&&&.222222222;;;;;;&&&&..>>>>>",
">>>>>>>>>..222222222222222211;;;;&&&&.222222222;;;;;;&&&&..>>>>>",
">>>>>>>>>..222222222222222211;;;;&&&&.222222222;;;;;;&&&&..>>>>>",
">>>>>>>..222222222===<2222;--&&&&&&&&.22###2222;;;&&&&&&&..>>>>>",
">>>>>>>..222222222===<2222;--&&&&&&&&.22###2222;;;&&&&&&&..>>>>>",
">>>>>>>..222222222===<2222;--&&&&&&&&.22###2222;;;&&&&&&&..>>>>>",
">>>>>>>..222222222===<22;;&&&&&&&&&&&.22###222;;;;&&&&&&&..>>>>>",
">>>>>>>..222222222===<22;;&&&&&&&&&&&.22###222;;;;&&&&&&&..>>>>>",
">>>>>..;;222222222222:;;&&&&&&&&&....222222222;&&&&&&&&&&..>>>>>",
">>>>>..;;222222222222:;;&&&&&&&&&....222222222;&&&&&&&&&&..>>>>>",
">>>>>..;;22@@@2222222:;;&&&&&&&&&....2==222;;;;&&&&&&&&..>>>>>>>",
">>>>>..;;22@@@2222222:;;&&&&&&&&&....2==222;;;;&&&&&&&&..>>>>>>>",
">>>>>..;;22@@@2222;;;*&&&&&$$....2222=22;;;;;;&&&&&&&&&..>>>>>>>",
">>>>>..;;22@@@2222;;;*&&&&&$$....2222=22;;;;;;&&&&&&&&&..>>>>>>>",
">>>>>..;;22@@@2222;;;*&&&&&$$....2222=22;;;;;;&&&&&&&&&..>>>>>>>",
">>>>>..;;;;2222222222O.....++222222222;;;;;&&&&&&&&&&..>>>>>>>>>",
">>>>>..;;;;2222222222O.....++222222222;;;;;&&&&&&&&&&..>>>>>>>>>",
">>>>>..;;;;2222222222O.....++222222222;;;;;&&&&&&&&&&..>>>>>>>>>",
">>>>>..;;;;222222####,22222222222;;;;;;;&&&&&&&&&&&&&..>>>>>>>>>",
">>>>>>>..;;;;;;;;222222222;;;;;;;;;;;&&&&&&&&&&&&&...>>>>>>>>>>>",
">>>>>>>..;;;;;;;;222222222;;;;;;;;;;;&&&&&&&&&&&&&...>>>>>>>>>>>",
">>>>>>>..;;;;;;;;222222222;;;;;;;;;;;&&&&&&&&&&&&&...>>>>>>>>>>>",
">>>>>>>..;;;;;;;;;;;;;;;;;;;;;;&&&&&&&&&&&&&&&&...>>>>>>>>>>>>>>",
">>>>>>>..;;;;;;;;;;;;;;;;;;;;;;&&&&&&&&&&&&&&&&...>>>>>>>>>>>>>>",
">>>>>>>..;;;;;;;;;;;;;;;;;;;;;;&&&&&&&&&&&&&&&&...>>>>>>>>>>>>>>",
">>>>>>>>>..;;;;;;;;;;;;;&&&&&&&&&&&&&&&&&&&&&&.>>>>>>>>>>>>>>>>>",
">>>>>>>>>..;;;;;;;;;;;;;&&&&&&&&&&&&&&&&&&&&&&.>>>>>>>>>>>>>>>>>",
">>>>>>>>>>>...&&&&&&&&&&&&&&&&&&&&&&&&&&......>>>>>>>>>>>>>>>>>>",
">>>>>>>>>>>...&&&&&&&&&&&&&&&&&&&&&&&&&&......>>>>>>>>>>>>>>>>>>",
">>>>>>>>>>>...&&&&&&&&&&&&&&&&&&&&&&&&&&......>>>>>>>>>>>>>>>>>>",
">>>>>>>>>>>>>>.......%&&&&&&&&&&&.......>>>>>>>>>>>>>>>>>>>>>>>>",
">>>>>>>>>>>>>>.......%&&&&&&&&&&&.......>>>>>>>>>>>>>>>>>>>>>>>>",
">>>>>>>>>>>>>>>>>>>>> ...........>>>>>>>>>>>>>>>>>>>>>>>>>>>>>>>",
">>>>>>>>>>>>>>>>>>>>> ...........>>>>>>>>>>>>>>>>>>>>>>>>>>>>>>>",
">>>>>>>>>>>>>>>>>>>>>>>>>>>>>>>>>>>>>>>>>>>>>>>>>>>>>>>>>>>>>>>>",
">>>>>>>>>>>>>>>>>>>>>>>>>>>>>>>>>>>>>>>>>>>>>>>>>>>>>>>>>>>>>>>>",
">>>>>>>>>>>>>>>>>>>>>>>>>>>>>>>>>>>>>>>>>>>>>>>>>>>>>>>>>>>>>>>>",
">>>>>>>>>>>>>>>>>>>>>>>>>>>>>>>>>>>>>>>>>>>>>>>>>>>>>>>>>>>>>>>>",
">>>>>>>>>>>>>>>>>>>>>>>>>>>>>>>>>>>>>>>>>>>>>>>>>>>>>>>>>>>>>>>>",
">>>>>>>>>>>>>>>>>>>>>>>>>>>>>>>>>>>>>>>>>>>>>>>>>>>>>>>>>>>>>>>>",
">>>>>>>>>>>>>>>>>>>>>>>>>>>>>>>>>>>>>>>>>>>>>>>>>>>>>>>>>>>>>>>>"
};
