/* XPM */
static char *result[] = {
/* columns rows colors chars-per-pixel */
"64 64 2 1 ",
"  c #F79C00",
". c None",
/* pixels */
"................................................................",
"................................................................",
"................................................................",
"................................................................",
"................................................................",
"................................................................",
"................................................................",
"................................................................",
"................................................................",
"................................................................",
".................................            ...................",
".............................    ............ ..................",
".........................    ................. .................",
"......................   ...................... ................",
"....................  .......................... ...............",
"................... ............................. ..............",
".................. ............................... .............",
"................  ................................. ............",
"............... .................................... ...........",
".............  ..................................... ...........",
"............. ....................................... ..........",
"............  ....................................... ..........",
"............ ......................................... .........",
"............ ......... ............ .................. .........",
"........... ..........    ......... ................... ........",
"........... ..............   ...... .... .....        . ........",
"........... ........................ ... .. ...... .... ........",
"........... ......... .............. .. ... ..... ..... ........",
"........... ......... .............. . .... ..... ...... .......",
"........... .........  ..............  ... ...... ...... .......",
"........... .........        ........ .... ...... ...... .......",
"........... ......... ..............  .... ...... ...... .......",
"............ ........ ............. .. ... ...... ...... .......",
"............ ........ ............. .. ... ...... ...... .......",
"............ ......... ............ .. ... ..... ....... .......",
"............ ......... ............ ... .. ..... ....... .......",
"............ ......... ........... .... .. ..... ....... .......",
"............. ......... .......... ....... ..... ....... .......",
"............. ..........        .  ....... ..... ...... ........",
"............. ............................ ..... ...... ........",
".............  ................................. ...... ........",
".............. ................................. ...... ........",
"............... ....................................... ........",
"................ ..................................... .........",
"................. .................................... .........",
".................  ................................... .........",
"................  ................................... ..........",
"................ .................................... ..........",
"...............  ................................... ...........",
"............... .................................... ...........",
"............... ....................................  ..........",
".............. ...................................... ..........",
".............. ...................................... ..........",
".............. ....................................... .........",
".............. ....................................... .........",
".............. ....................................... .........",
".............. ....................................... .........",
"............. ........................................ .........",
"............. ........................................ .........",
"............. ........................................ .........",
"............. ....................................... ..........",
"............. ....................................... ..........",
"............. ....................................... ..........",
"............. ....................................... .........."
};
