/* XPM */
static char *result[] = {
/* columns rows colors chars-per-pixel */
"64 64 8 1 ",
"  c black",
". c red",
"X c #DD2C00",
"o c #FFF496",
"O c #B0BEC5",
"+ c #ECEFF1",
"@ c #FAF5FA",
"# c white",
/* pixels */
"oooooooooooooooooooooo                    oooooooooooooooooooooo",
"oooooooooooooooooooooo                    oooooooooooooooooooooo",
"oooooooooooooooooooooo                    oooooooooooooooooooooo",
"oooooooooooooo        ....................       ooooooooooooooo",
"oooooooooooooo        ....................       ooooooooooooooo",
"oooooooooooooo        ....................       ooooooooooooooo",
"oooooooooooooo        ....................       ooooooooooooooo",
"oooooooooo    ...................................    ooooooooooo",
"oooooooooo    ...................................    ooooooooooo",
"oooooooooo    ...................................    ooooooooooo",
"ooooooo   XXXX++++++++...............................    ooooooo",
"ooooooo   XXXX++++++++...............................    ooooooo",
"ooooooo   XXXX++++++++...............................    ooooooo",
"ooooooo   XXXX++++++++...............................    ooooooo",
"ooo    ...++++########+++................................    ooo",
"ooo    ...++++########+++................................    ooo",
"ooo    ...++++########+++................................    ooo",
"ooo    ...++++########+++................................    ooo",
"ooo    ...++++########+++................................    ooo",
"ooo    ...++++########+++................................    ooo",
"ooo    ...++++########+++................................    ooo",
"ooo    ...++++########+++................................    ooo",
"   ...........++++++++.......................................   ",
"   ...........++++++++.......................................   ",
"   ...........++++++++.......................................   ",
"   ..........................................................   ",
"   ..........................................................   ",
"   ..........................................................   ",
"   ..........................................................   ",
"   ..........................................................   ",
"   ..........................................................   ",
"   ..........................................................   ",
"       ......................................................   ",
"       ......................................................   ",
"       ......................................................   ",
"          ........           ............................       ",
"          ........           ............................       ",
"          ........           ............................       ",
"          ........           ............................       ",
"                  @@@@###@@@@   ..............                  ",
"                  @@@@###@@@@   ..............                  ",
"                  @@@@###@@@@   ..............                  ",
"ooo    OOO        ###########                        OOOO    ooo",
"ooo    OOO        ###########                        OOOO    ooo",
"ooo    OOO        ###########                        OOOO    ooo",
"ooo    OOO        ###########                        OOOO    ooo",
"ooo    OOO####    @@@@###@@@@                 #######OOOO    ooo",
"ooo    OOO####    @@@@###@@@@                 #######OOOO    ooo",
"ooo    OOO####    @@@@###@@@@                 #######OOOO    ooo",
"ooooooo   OOOO####           ####################OOOO    ooooooo",
"ooooooo   OOOO####           ####################OOOO    ooooooo",
"ooooooo   OOOO####           ####################OOOO    ooooooo",
"ooooooo   OOOO####           ####################OOOO    ooooooo",
"oooooooooo    OOOO########################OOOOOOO    ooooooooooo",
"oooooooooo    OOOO########################OOOOOOO    ooooooooooo",
"oooooooooo    OOOO########################OOOOOOO    ooooooooooo",
"oooooooooooooo        OOOOOOOOOOOOOOOOOOOO       ooooooooooooooo",
"oooooooooooooo        OOOOOOOOOOOOOOOOOOOO       ooooooooooooooo",
"oooooooooooooo        OOOOOOOOOOOOOOOOOOOO       ooooooooooooooo",
"oooooooooooooooooooooo                    oooooooooooooooooooooo",
"oooooooooooooooooooooo                    oooooooooooooooooooooo",
"oooooooooooooooooooooo                    oooooooooooooooooooooo",
"oooooooooooooooooooooo                    oooooooooooooooooooooo",
"oooooooooooooooooooooooooooooooooooooooooooooooooooooooooooooooo"
};
