/* XPM */
static char *result[] = {
/* columns rows colors chars-per-pixel */
"64 64 12 1 ",
"  c black",
". c #5E2727",
"X c #850505",
"o c #910909",
"O c #EC147C",
"+ c #673AB7",
"@ c #FF61D5",
"# c #2196F3",
"$ c gray62",
"% c #FFF496",
"& c #FF9CE5",
"* c white",
/* pixels */
"%%%%%%%%%%%%%%%%%%%%%%%%%%%%%%%%%%%%%%%%%%%%%%%%%%%%%%%%%%%%%%%%",
"%%%%%%%%%%%%%%%%%%%%%%%%%%%%%%%%%%%%%%%%%%%%%%%%%%%%%%%%%%%%%%%%",
"%%%%%%%%%%%%%%%%%%%%%%%%%%%%%%%%%%%%%%%%%%%%%%%%%%%%%%%%%%%%%%%%",
"%%%%%%%%%%%%%%XXXXX%%%%%%%%%%%%%%%%%%%%%%%%%%%%%%%%%%%%%%%%%%%%%",
"%%%%%%%%%%%%%%XXXXX%%%%%%%%%%%%%%%%%%%%%%%%%%%%%%%%%%%%%%%%%%%%%",
"%%%%%%%%%%%%%X&&&&&@@XX%%%%%%%%%%%%%%%%%%%%%%%%%%%%%%%%%%%%%%%%%",
"%%%%%%%%%%%%% @@  &&&@@X%%%%%%%%%%%%%%%%%%%%%%%%%%%%%%%%%%%%%%%%",
"%%%%%%%%%%%%% @@  &&&@@X%%%%%%%%%%%%%%%%%%%%%%%%%%%%%%%%%%%%%%%%",
"%%%%%%%%%%%%% @@  .@@@@@XX%%%%%XXXXXXXX%%%%%%%%%%%%%%%%%%%%%%%%%",
"%%%%%%%%%%%%% @@  .@@@@@XX%%%%%XXXXXXXX%%%%%%%%%%%%%%%%%%%%%%%%%",
"%%%%%%%%%%%  @..   @@@@@@@XXXXX&&&&&&&&XXX%%%%%%%%%%%%%%%%%%%%%%",
"%%%%%%%%%%%  @.... ..&&XXXXXX&&&&&&&&&&&&&XXX%%%%%%%%%%%%%%%%%%%",
"%%%%%%%%%%%  @.... ..&&XXXXXX&&&&&&&&&&&&&XXX%%%%%%%%%%%%%%%%%%%",
"%%%%%%%%%%%  @..   &&&&&XX&&&&&&&&&&&&&&&&XXX%%%%%%%%%%%%%%%%%%%",
"%%%%%%%%%%%  @..   &&&&&XX&&&&&&&&&&&&&&&&XXX%%%%%%%%%%%%%%%%%%%",
"%%%%%%%%%%%  @  &&&&&&&X&&&&&&&&&&&&&&&&&&&&&X%%%%%%%%%%%%%%%%%%",
"%%%%%%%%%%%  @  &&&&&&&X&&&&&&&&&&&&&&&&&&&&&X%%%%%%%%%%%%%%%%%%",
"%%%%%%%%%%%   &&&&&&&&&X&&&&&&&&&&&&&&&&&&&&&&XXXXXXXXXX%%%%%%%%",
"%%%%%%%%%%%  &&&&&&&&XX&&&&&&&&&&&&&&&&&&&&&&&&XX&&&&&&&@XXXX%%%",
"%%%%%%%%%%%  &&&&&&&&XX&&&&&&&&&&&&&&&&&&&&&&&&&&&&&&&&&&&&&&X%%",
"%%%%%%%%%%%  &&&&&&&&XX&&&&&&&&&&&&&&&&&&&&&&&&&&&&&&&&&&&&&&X%%",
"%%%%%%%%%% &&&&&&&&&&XX&&&&&&&&&&&&&&&&&&&&&&&&&&&&&&&&&&&&&&X%%",
"%%%%%%%%%  &&&&&&&&&&XX&&&&&&&&&     &&&&&&&&&&&&&&&&&&&&&&&&&XX",
"%%%%%%%% &&&&&@@@@@&&XX&&&&&&&&X@@   &&&&&&&&&&&&&&&&&..     @XX",
"%%%%%%%% &&&&&@@@@@&&XX&&&&&&&&X@@   &&&&&&&&&&&&&&&&&..     @XX",
"%%%%%%%% &&@@&##+++&&&&X&&&&&&&&&&XXX&&&&&&&&&&&&&&        @@X%%",
"%%%%%%%% &&@@&##+++&&&&X&&&&&&&&&&XXX&&&&&&&&&&&&&&        @@X%%",
"%%%%%%%% &&**#++***++&&X@@&&&&&&@@X&&&&&&&&&&&&&&&&   ...@@  %%%",
"%%%%%%%% &&**#++***++&&X@@&&&&&&@@X&&&&&&&&&&&&&&&&   ...@@  %%%",
"%%%%%%% &@@**+++***++@@&XX@@@&&&XX&&&&&&&&&&&&&&&&&   ...@@  %%%",
"%%%%%%% &@@**++++++++@@&&&XXXXX@&&&@@@@@@@&&&&&&&&&.....@  %%%%%",
"%%%%%%% &@@**++++++++@@&&&XXXXX@&&&@@@@@@@&&&&&&&&&.....@ %%%%%%",
"%%%%%   &@@**###+++##@@&&&&&&&&&&&+++++##*@&&&&&&&&@@@@@ %%%%%%%",
"%%%  &oo&@@$$*#####&&&&&&&&&&&&&+++++****#*&&&&&&&&     %%%%%%%%",
"%    &oo&@@$$*#####&&&&&&&&&&&&&+++++****#*&&&&&&&&  %%%%%%%%%%%",
" &&&&&oo&&&@@$*****@@&&&&&&&&&&@+++++****+*@@@&&&&&  %%%%%%%%%%%",
" &&&&&oo&&&@@$*****@@&&&&&&&&&&@+++++****+*@@@&&&&&  %%%%%%%%%%%",
" &&&&&@@&&&&&@@@@@@&&&&&&&&&&&&@++++++++++*@@@&&&&&  %%%%%%%%%%%",
" &&&&&@@&&&&&@@@@@@&&&&&&&&&&&&@++++++++++*@@@&&&&&  %%%%%%%%%%%",
"%  @@@@@@&&&&&&&&&&&&&o****oo&&@#####++++#*@@@&&&&@  %%%%%%%%%%%",
"%%%   @@o&&&&&&&&&&&&ooooooooo&&**#######*$@@@&&&@@     %%%%%%%%",
"%%%%% @@o&&&&&&&&&&&&ooooooooo&&**#######*$@@@&&&@&&&&&& %%%%%%%",
"%%%%%%  o@@&&&&&&&&&&&oOOOOoo&&&@@*******$@&&&&&@&&&&&&& %%%%%%%",
"%%%%%%% o@@&&&&&&&&&&&&&&&&&&&&&&&@@@@@@@@&&&&&@@&&&&&&&& %%%%%%",
"%%%%%%% o@@&&&&&&&&&&&&&&&&&&&&&&&@@@@@@@@&&&&&@@&&&&&&&& %%%%%%",
"%%%%%%%%%XX@@@@@&&&&&&&&&&&&&&&&&&&&&&&&&&&&&&@@&&&&&&&&& %%%%%%",
"%%%%%%%%%XX@@@@@&&&&&&&&&&&&&&&&&&&&&&&&&&&&&@@@@@@@@@&& %%%%%%%",
"%%%%%%%%%  @@@@@@@@&&&&&&&&&&&&&&&&&&&&&&&@@@@@@@@@@@@  %%%%%%%%",
"%%%%%%%%%% @@@@@@@@&&&&&&&&&&&&&&&&&&&&&&@@@@@@@@@@    %%%%%%%%%",
"%%%%%%%%%%%  @@@@@@@@@@@&&&&&&&&&&&@@@@@@@@@@@@@@    %%%%%%%%%%%",
"%%%%%%%%%%%%% @@@@@@@@@@@@@@@@@@@@@@@@@@@@@@@@    %%%%%%%%%%%%%%",
"%%%%%%%%%%%%% oo@@@@@@@@@@@@@@@@@@@@@@@@@@@    %%%%%%%%%%%%%%%%%",
"%%%%%%%%%%%%% oo@@@@@@@@@@@@@@@@@@@@@@@@@@@    %%%%%%%%%%%%%%%%%",
"%%%%%%%%%%%%% oo@@@@@@@@@@@@@@@@@@@@@@@@@@@  %%%%%%%%%%%%%%%%%%%",
"%%%%%%%%%%%  @@@@@o@@@@@@@@@@@@@@@@@@@@@@o %%%%%%%%%%%%%%%%%%%%%",
"%%%%%%%%%%%  @@@@@o@@@@@@@@@@@@@@@@@@@@@@o %%%%%%%%%%%%%%%%%%%%%",
"%%%%%%%%%  &&&@@@@@oo   @@@@@@@@@@@oooo@@@@   %%%%%%%%%%%%%%%%%%",
"%%%%%%%% &&&&&&&@@@   %%          o@@@@@@@&&&& %%%%%%%%%%%%%%%%%",
"%%%%%%%% &&&&&&&@@@  %%%%%%%%%%%% o@@@@@@@&&&& %%%%%%%%%%%%%%%%%",
"%%%%%%%% &&&&&&&   %%%%%%%%%%%%%%% oo@@@@&&&&& %%%%%%%%%%%%%%%%%",
"%%%%%%%% &&&&&&&   %%%%%%%%%%%%%%% oo@@@@&&&&& %%%%%%%%%%%%%%%%%",
"%%%%%%%%%       %%%%%%%%%%%%%%%%%%%    @@&&   %%%%%%%%%%%%%%%%%%",
"%%%%%%%%%%%%%%%%%%%%%%%%%%%%%%%%%%%%%%%    %%%%%%%%%%%%%%%%%%%%%",
"%%%%%%%%%%%%%%%%%%%%%%%%%%%%%%%%%%%%%%%%%%%%%%%%%%%%%%%%%%%%%%%%"
};
