/* XPM */
static char *result[] = {
/* columns rows colors chars-per-pixel */
"64 64 7 1 ",
"  c #56B742",
". c #498F7B",
"X c #49A867",
"o c #4FAF7B",
"O c #74C857",
"+ c #BDEF6F",
"@ c #FFF496",
/* pixels */
"@@@@@@@@@@@@@@@@@@@@@@@@@@@@@@@@@@@@@@@@@@@@@@@@@@@@@@@@@@@@@@@@",
"@@@@@@@@@@@@@@@@@@@@@@@@@@@@@@@@@@@@@@@@@@@@@@@@@@@@@@@@@@@@@@@@",
"@@@@@@@@@@@@@@@@@@@@@@@@@@@@@@@@@@@@@@@@@@@@@@@@@@@@@@@@@@@@@@@@",
"@@@@@@@@@@@@@@@@@@@@@@@@@@@@@@@@@@@@@@@@@@@@@@@@@@@@@@@@@@@@@@@@",
"@@@@@@@@@@@@@@@@@@@@@@@@@@@@@@@@@@@@@@@@@@@@@@@@@@@@@@@@@@@@@@@@",
"@@@@@@@@@@@@@@@@@@@@@@@@@@@@@@@@@@@@@@@@@@@@@@@@@@@@@@@@@@@@@@@@",
"@@@@@@@@@@@@@@@@@@@@@@@@XXXXXXXXXXXXXXXX@@@@@@@@@@@@@@@@@@@@@@@@",
"@@@@@@@@@@@@@@@@@@@@@@@@XXXXXXXXXXXXXXXX@@@@@@@@@@@@@@@@@@@@@@@@",
"@@@@@@@@@@@@@@@@@@@@@@@@XXXXXXXXXXXXXXXX@@@@@@@@@@@@@@@@@@@@@@@@",
"@@@@@@@@@@@@@@@@@@@@@@@@XXXXXXXXXXXXXXXX@@@@@@@@@@@@@@@@@@@@@@@@",
"@@@@@@@@@@@@@@@@@@XXXXXX      OOOO      XXXXXX@@@@@@@@@@@@@@@@@@",
"@@@@@@@@@@@@@@@@@@XXXXXX      OOOO      XXXXXX@@@@@@@@@@@@@@@@@@",
"@@@@@@@@@@@@@@@@@@XXXXXX      OOOO      XXXXXX@@@@@@@@@@@@@@@@@@",
"@@@@@@@@@@@@@@@XXX   OOOOOOOOO++++OOOOOOOOO   XXX@@@@@@@@@@@@@@@",
"@@@@@@@@@@@@@@@XXX   OOOOOOOOO++++OOOOOOOOO   XXX@@@@@@@@@@@@@@@",
"@@@@@@@@@@@@@@@XXX   OOOOOOOOO++++OOOOOOOOO   XXX@@@@@@@@@@@@@@@",
"@@@@@@@@@@@@XXX   OOOOOOOOO++++++++++OOOOOOOOO   XXX@@@@@@@@@@@@",
"@@@@@@@@@@@@XXX   OOOOOOOOO++++++++++OOOOOOOOO   XXX@@@@@@@@@@@@",
"@@@@@@@@@@@@XXX   OOOOOOOOO++++++++++OOOOOOOOO   XXX@@@@@@@@@@@@",
"@@@@@@@@@XXXXXX   OOOOOO++++++++++++++++OOOOOO   XXXXXX@@@@@@@@@",
"@@@@@@@@@XXXXXX   OOOOOO++++++++++++++++OOOOOO   XXXXXX@@@@@@@@@",
"@@@@@@@@@XXXXXX   OOOOOO++++++++++++++++OOOOOO   XXXXXX@@@@@@@@@",
"@@@@@@@@@XXX         OOOOOO++++++++++OOOOOO         XXX@@@@@@@@@",
"@@@@@@@@@XXX         OOOOOO++++++++++OOOOOO         XXX@@@@@@@@@",
"@@@@@@@@@XXX         OOOOOO++++++++++OOOOOO         XXX@@@@@@@@@",
"@@@@@@@@@XXX         OOOOOO++++++++++OOOOOO         XXX@@@@@@@@@",
"@@@@@@...XXX      OOOOOOOOOOOO++++OOOOOOOOOOOO      XXX...@@@@@@",
"@@@@@@...XXX      OOOOOOOOOOOO++++OOOOOOOOOOOO      XXX...@@@@@@",
"@@@@@@...XXX      OOOOOOOOOOOO++++OOOOOOOOOOOO      XXX...@@@@@@",
"@@@@@@...XXX      OOOOOOOOOOOOOOOOOOOOOOOOOOOO      XXX...@@@@@@",
"@@@@@@...XXX      OOOOOOOOOOOOOOOOOOOOOOOOOOOO      XXX...@@@@@@",
"@@@@@@...XXX      OOOOOOOOOOOOOOOOOOOOOOOOOOOO      XXX...@@@@@@",
"@@@@@@...XXX      OOOOOO   OOOOOOOOOO   OOOOOO      XXX...@@@@@@",
"@@@@@@...XXX      OOOOOO   OOOOOOOOOO   OOOOOO      XXX...@@@@@@",
"@@@@@@...XXX      OOOOOO   OOOOOOOOOO   OOOOOO      XXX...@@@@@@",
"@@@@@@...XXXXXX            OOOOOOO               XXXXXX...@@@@@@",
"@@@@@@...XXXXXX            OOOOOOO               XXXXXX...@@@@@@",
"@@@@@@...XXXXXX            OOOOOOO               XXXXXX...@@@@@@",
"@@@@@@@@@...XXX                                  XXX...@@@@@@@@@",
"@@@@@@@@@...XXX                                  XXX...@@@@@@@@@",
"@@@@@@@@@...XXX                                  XXX...@@@@@@@@@",
"@@@@@@@@@...XXX                                  XXX...@@@@@@@@@",
"@@@@@@@@@...XXXXXX      XXX          XXX      XXXXXX...@@@@@@@@@",
"@@@@@@@@@...XXXXXX      XXX          XXX      XXXXXX...@@@@@@@@@",
"@@@@@@@@@...XXXXXX      XXX          XXX      XXXXXX...@@@@@@@@@",
"@@@@@@@@@ooo...XXXXXXXXXXXX       XXXXXXXXXXXXXXX...ooo@@@@@@@@@",
"@@@@@@@@@ooo...XXXXXXXXXXXX       XXXXXXXXXXXXXXX...ooo@@@@@@@@@",
"@@@@@@@@@ooo...XXXXXXXXXXXX       XXXXXXXXXXXXXXX...ooo@@@@@@@@@",
"@@@@@@@@@oooooo......XXXXXXXXXXXXXXXXXXXXXX......oooooo@@@@@@@@@",
"@@@@@@@@@oooooo......XXXXXXXXXXXXXXXXXXXXXX......oooooo@@@@@@@@@",
"@@@@@@@@@oooooo......XXXXXXXXXXXXXXXXXXXXXX......oooooo@@@@@@@@@",
"@@@@@@@@@@@@ooooooooo......................ooooooooo@@@@@@@@@@@@",
"@@@@@@@@@@@@ooooooooo......................ooooooooo@@@@@@@@@@@@",
"@@@@@@@@@@@@ooooooooo......................ooooooooo@@@@@@@@@@@@",
"@@@@@@@@@@@@@@@@@@oooooooooooooooooooooooooooo@@@@@@@@@@@@@@@@@@",
"@@@@@@@@@@@@@@@@@@oooooooooooooooooooooooooooo@@@@@@@@@@@@@@@@@@",
"@@@@@@@@@@@@@@@@@@oooooooooooooooooooooooooooo@@@@@@@@@@@@@@@@@@",
"@@@@@@@@@@@@@@@@@@oooooooooooooooooooooooooooo@@@@@@@@@@@@@@@@@@",
"@@@@@@@@@@@@@@@@@@@@@@@@@@@@@@@@@@@@@@@@@@@@@@@@@@@@@@@@@@@@@@@@",
"@@@@@@@@@@@@@@@@@@@@@@@@@@@@@@@@@@@@@@@@@@@@@@@@@@@@@@@@@@@@@@@@",
"@@@@@@@@@@@@@@@@@@@@@@@@@@@@@@@@@@@@@@@@@@@@@@@@@@@@@@@@@@@@@@@@",
"@@@@@@@@@@@@@@@@@@@@@@@@@@@@@@@@@@@@@@@@@@@@@@@@@@@@@@@@@@@@@@@@",
"@@@@@@@@@@@@@@@@@@@@@@@@@@@@@@@@@@@@@@@@@@@@@@@@@@@@@@@@@@@@@@@@",
"@@@@@@@@@@@@@@@@@@@@@@@@@@@@@@@@@@@@@@@@@@@@@@@@@@@@@@@@@@@@@@@@"
};
